<svg t="1566268715202" class="icon" viewBox="0 0 1536 1024" version="1.1" xmlns="http://www.w3.org/2000/svg" p-id="7657" width="200" height="200"><path d="M853.312 512H832v-42.688h-64V0h277.312v469.312h-128V512H896v64h-42.688V512z m213.376 469.312H469.312V1024H0v-85.312h1536V1024h-469.312v-42.688zM1472 256v106.688h42.688V213.312h-256v149.376h42.624V256H1472z m-341.312 469.312V170.688H1536V896H0v-170.688h1130.688zM0 192h618.688v490.688H0V192z m192 106.688a128 128 0 0 0-128 128v42.624a128 128 0 0 0 128 128h192a128 128 0 0 0 128-128v-42.624a128 128 0 0 0-128-128H192zM554.688 320v256H576V320h-21.312z m704 298.688v64h106.624v-64h-106.624z m0-256v234.624h256V362.688h-256z m-597.376 256H1088v64h-426.688v-64z m277.376-256v64h64v-64h-64z m0-64v42.624h64v-42.624h-64z m533.312-192h42.688v42.624H1472v-42.624zM1472 64h42.688v21.312H1472V64z m0-64h42.688v42.688H1472V0z" p-id="7658"></path></svg>
